<?xml version="1.0" standalone="no"?><!DOCTYPE svg PUBLIC "-//W3C//DTD SVG 1.1//EN" "http://www.w3.org/Graphics/SVG/1.1/DTD/svg11.dtd"><svg t="1676815764430" class="icon" viewBox="0 0 1024 1024" version="1.1" xmlns="http://www.w3.org/2000/svg" p-id="2772" xmlns:xlink="http://www.w3.org/1999/xlink" width="200" height="200"><path d="M166.107955 628.656947c-15.830221 0-30.836531-3.001344-45.027328-9.00608-14.190797-5.999616-26.471014-14.186086-36.84055-24.559309-10.369638-10.368102-18.556416-22.647808-24.560333-36.839014-6.004019-14.190182-9.00649-29.195981-9.00649-45.025485 0-15.824384 3.00247-30.699213 9.00649-44.61312 6.004019-13.919027 14.190797-26.062541 24.560333-36.43177 10.369638-10.369126 22.649754-18.555597 36.84055-24.559309 14.190797-6.003712 29.19721-9.00608 45.027328-9.00608 3.273728 0 6.276198 0.140186 9.00649 0.412365 2.726195 0.271155 5.456486 0.407245 8.186778 0.407245l159.642419-193.201254c-2.730291-5.456282-4.505805-11.459994-5.325517-18.007142-0.814592-6.552269-1.226957-13.371494-1.226957-20.466074 0-15.829504 3.00247-30.835302 9.00649-45.025485 6.004019-14.190182 14.190797-26.469888 24.560333-36.839014s22.649754-18.555597 36.84055-24.559309c14.190797-6.003712 29.201306-9.00608 45.027328-9.00608 15.826125 0 30.836531 3.002368 45.027328 9.00608s26.471014 14.190182 36.84055 24.559309c10.369638 10.369126 18.556416 22.648832 24.560333 36.839014 6.004019 14.190182 9.00649 29.200077 9.00649 45.025485 0 13.099315-2.046669 25.514086-6.140109 37.246259-4.09344 11.736269-9.690112 22.784922-16.786022 33.158144L682.69568 547.612058l79.408845-141.623501c-6.004019-9.278362-10.912973-19.511398-14.734131-30.699213-3.822182-11.188838-5.732762-23.061197-5.732762-35.612058 0-15.829504 3.00247-30.835302 9.00649-45.025485 6.004019-14.190182 14.190797-26.469888 24.560333-36.839014 10.369638-10.369126 22.649754-18.555597 36.84055-24.559309 14.190797-6.003712 29.201306-9.00608 45.027328-9.00608 15.826125 0 30.836531 3.002368 45.027328 9.00608 14.190797 6.003712 26.607104 14.190182 37.247898 24.559309 10.645914 10.369126 18.968781 22.648832 24.9728 36.839014 6.004019 14.190182 9.00649 29.200077 9.00649 45.025485 0 16.372941-3.00247 31.653888-9.00649 45.845094-6.004019 14.186086-14.326886 26.605978-24.9728 37.246259-10.640794 10.640384-23.057101 18.966938-37.247898 24.966656-14.194893 6.004736-29.201306 9.00608-45.027328 9.00608l-19.64728 0-77.774541 141.628621c12.007936 10.912563 21.561958 23.739699 28.653773 38.473216 7.094886 14.738637 10.640794 30.835302 10.640794 48.299008 0 15.829504-3.001446 30.839398-9.00649 45.025485-5.999923 14.191206-14.326886 26.605978-24.96768 37.251379-10.640794 10.640384-22.921011 18.962842-36.84055 24.966656-13.919642 6.003712-29.06112 9.00608-45.434675 9.00608s-31.520154-3.002368-45.439795-9.00608c-13.914522-6.003712-26.059571-14.326272-36.428186-24.966656-10.373734-10.645504-18.560512-23.060173-24.560333-37.251379-6.005043-14.186086-9.00649-29.195981-9.00649-45.025485 0-17.463706 3.409818-33.560371 10.233446-48.299008 6.819635-14.733517 16.237466-27.560755 28.241408-38.473216l-140.809728-315.178291c-5.460582 1.090867-9.826202 1.634202-13.09993 1.634202-8.73431 0-17.057178-1.090867-24.96768-3.273523-7.915622-2.182758-15.422874-4.912845-22.513664-8.18647L264.349491 450.19433c5.456486 9.277338 9.821082 19.239219 13.09993 29.879501 3.273728 10.640384 4.908032 21.69303 4.908032 33.153024 0 15.829504-3.001446 30.839398-9.00137 45.025485-6.005043 14.191206-14.326886 26.470912-24.9728 36.839014-10.640794 10.373222-22.921011 18.559693-36.84055 24.559309C197.628211 625.655501 182.481613 628.656947 166.107955 628.656947L166.107955 628.656947zM50.673152 860.336538l922.65364 0 0 111.331621L50.67318 971.668159 50.67318 860.3365 50.673152 860.336538zM50.673152 860.336538" p-id="2773"></path></svg>