<svg width="1985" height="1003" xmlns="http://www.w3.org/2000/svg" xmlns:xlink="http://www.w3.org/1999/xlink" overflow="hidden"><defs><filter id="fx0" x="-10%" y="-10%" width="120%" height="120%" filterUnits="userSpaceOnUse" primitiveUnits="userSpaceOnUse"><feComponentTransfer color-interpolation-filters="sRGB"><feFuncR type="discrete" tableValues="0 0"/><feFuncG type="discrete" tableValues="0 0"/><feFuncB type="discrete" tableValues="0 0"/><feFuncA type="linear" slope="0.4" intercept="0"/></feComponentTransfer><feGaussianBlur stdDeviation="6.11111 6.11111"/></filter><filter id="fx1" x="-10%" y="-10%" width="120%" height="120%" filterUnits="userSpaceOnUse" primitiveUnits="userSpaceOnUse"><feComponentTransfer color-interpolation-filters="sRGB"><feFuncR type="discrete" tableValues="0 0"/><feFuncG type="discrete" tableValues="0 0"/><feFuncB type="discrete" tableValues="0 0"/><feFuncA type="linear" slope="0.380392" intercept="0"/></feComponentTransfer><feGaussianBlur stdDeviation="4.8119 4.8119"/></filter><filter id="fx2" x="-10%" y="-10%" width="120%" height="120%" filterUnits="userSpaceOnUse" primitiveUnits="userSpaceOnUse"><feComponentTransfer color-interpolation-filters="sRGB"><feFuncR type="discrete" tableValues="0 0"/><feFuncG type="discrete" tableValues="0 0"/><feFuncB type="discrete" tableValues="0 0"/><feFuncA type="linear" slope="0.380392" intercept="0"/></feComponentTransfer><feGaussianBlur stdDeviation="4.8119 4.8119"/></filter><filter id="fx3" x="-10%" y="-10%" width="120%" height="120%" filterUnits="userSpaceOnUse" primitiveUnits="userSpaceOnUse"><feComponentTransfer color-interpolation-filters="sRGB"><feFuncR type="discrete" tableValues="0 0"/><feFuncG type="discrete" tableValues="0 0"/><feFuncB type="discrete" tableValues="0 0"/><feFuncA type="linear" slope="0.290196" intercept="0"/></feComponentTransfer><feGaussianBlur stdDeviation="6.48503 6.47283"/></filter><clipPath id="clip4"><rect x="1024" y="503" width="1985" height="1003"/></clipPath><clipPath id="clip5"><rect x="1024" y="503" width="1983" height="1000"/></clipPath><clipPath id="clip6"><rect x="-16" y="-16" width="48" height="48"/></clipPath><clipPath id="clip7"><rect x="0" y="0" width="46" height="46"/></clipPath><clipPath id="clip8"><rect x="1375" y="691" width="629" height="629"/></clipPath><clipPath id="clip9"><rect x="-17" y="-17" width="157" height="154"/></clipPath><clipPath id="clip10"><rect x="0" y="0" width="430" height="421"/></clipPath><clipPath id="clip11"><rect x="1375" y="691" width="629" height="629"/></clipPath><clipPath id="clip12"><rect x="-17" y="-17" width="133" height="124"/></clipPath><clipPath id="clip13"><rect x="0" y="0" width="348" height="313"/></clipPath><clipPath id="clip14"><rect x="1375" y="691" width="629" height="629"/></clipPath><clipPath id="clip15"><rect x="1375" y="691" width="629" height="629"/></clipPath><clipPath id="clip16"><rect x="1024" y="503" width="1983" height="1000"/></clipPath><clipPath id="clip17"><rect x="1024" y="503" width="1983" height="1000"/></clipPath><clipPath id="clip18"><rect x="1024" y="503" width="1983" height="1000"/></clipPath><clipPath id="clip19"><rect x="1024" y="503" width="1983" height="1000"/></clipPath><clipPath id="clip20"><rect x="1024" y="503" width="1983" height="1000"/></clipPath><clipPath id="clip21"><rect x="1024" y="503" width="1983" height="1000"/></clipPath><clipPath id="clip22"><path d="M2351.5 926.5 2351.5 1081.5 2979.5 1081.5 2979.5 926.5ZM1024 503 3009 503 3009 1506 1024 1506Z" fill-rule="evenodd" clip-rule="evenodd"/></clipPath><clipPath id="clip23"><rect x="-17.4783" y="-17.4455" width="96.8801" height="58.0685"/></clipPath><clipPath id="clip24"><rect x="0" y="0" width="202" height="80"/></clipPath><linearGradient x1="2665.5" y1="924.781" x2="2665.5" y2="1083.22" gradientUnits="userSpaceOnUse" spreadMethod="reflect" id="stroke25"><stop offset="0" stop-color="#F6F9FC"/><stop offset="0.74" stop-color="#B0C6E1"/><stop offset="0.83" stop-color="#B0C6E1"/><stop offset="1" stop-color="#CAD9EB"/></linearGradient><clipPath id="clip26"><rect x="1024" y="503" width="1983" height="1000"/></clipPath><clipPath id="clip27"><rect x="1024" y="503" width="1983" height="1000"/></clipPath><clipPath id="clip28"><rect x="1024" y="503" width="1983" height="1000"/></clipPath><clipPath id="clip29"><rect x="1024" y="503" width="1983" height="1000"/></clipPath></defs><g clip-path="url(#clip4)" transform="translate(-1024 -503)"><g clip-path="url(#clip5)"><g clip-path="url(#clip6)" filter="url(#fx0)" transform="translate(1377 678)"><g clip-path="url(#clip7)"><path d="M23.0949 21.7561 23.8349 22.2961 23.6384 22.5654 22.8984 22.0254ZM22.7019 22.2946 23.4419 22.8347 23.2454 23.1039 22.5054 22.5639ZM22.5054 22.5639C22.2823 22.4011 22.2335 22.0883 22.3962 21.8653 22.559 21.6422 22.8718 21.5933 23.0949 21.7561ZM23.8349 22.2961C24.058 22.4589 24.1068 22.7717 23.9441 22.9948 23.7813 23.2178 23.4685 23.2667 23.2454 23.1039ZM24.0166 22.8516 23.7366 23.7317 23.419 23.6306 23.699 22.7506ZM23.3813 22.6495 23.1013 23.5295 22.7837 23.4285 23.0637 22.5484ZM23.0637 22.5484C23.1474 22.2853 23.4286 22.1398 23.6918 22.2236 23.9549 22.3073 24.1004 22.5885 24.0166 22.8516ZM23.7366 23.7317C23.6529 23.9948 23.3717 24.1402 23.1085 24.0565 22.8454 23.9728 22.7 23.6916 22.7837 23.4285ZM23.2602 24.0801 22.3401 24.0801 22.3401 23.7467 23.2602 23.7467ZM23.2602 23.4134 22.3401 23.4134 22.3401 23.0801 23.2602 23.0801ZM23.2602 23.0801C23.5363 23.0801 23.7602 23.3039 23.7602 23.5801 23.7602 23.8562 23.5363 24.0801 23.2602 24.0801ZM22.3401 24.0801C22.064 24.0801 21.8401 23.8562 21.8401 23.5801 21.8401 23.3039 22.064 23.0801 22.3401 23.0801ZM21.8637 23.7317 21.5836 22.8516 21.9013 22.7506 22.1813 23.6306ZM22.4989 23.5295 22.2189 22.6495 22.5366 22.5484 22.8166 23.4285ZM22.8166 23.4285C22.9003 23.6916 22.7549 23.9728 22.4917 24.0565 22.2286 24.1402 21.9474 23.9948 21.8637 23.7317ZM21.5836 22.8516C21.4999 22.5885 21.6454 22.3073 21.9085 22.2236 22.1717 22.1398 22.4528 22.2853 22.5366 22.5484ZM21.7654 22.2961 22.5054 21.7561 22.7019 22.0254 21.9619 22.5654ZM22.1584 22.8347 22.8984 22.2946 23.0949 22.5639 22.3548 23.1039ZM22.3548 23.1039C22.1318 23.2667 21.819 23.2178 21.6562 22.9948 21.4934 22.7717 21.5423 22.4589 21.7654 22.2961ZM22.5054 21.7561C22.7285 21.5933 23.0413 21.6422 23.204 21.8653 23.3668 22.0883 23.3179 22.4011 23.0949 22.5639ZM23.0936 20.9751 24.5836 22.0552 24.388 22.3251 22.8979 21.245ZM22.7023 21.5149 24.1924 22.595 23.9967 22.8649 22.5067 21.7848ZM22.5067 21.7848C22.2831 21.6228 22.2332 21.3101 22.3953 21.0865 22.5574 20.863 22.87 20.8131 23.0936 20.9751ZM24.5836 22.0552C24.8072 22.2172 24.8571 22.5299 24.695 22.7535 24.533 22.977 24.2203 23.0269 23.9967 22.8649ZM24.7656 22.6149 24.1956 24.3649 23.8786 24.2617 24.4487 22.5116ZM24.1317 22.4084 23.5617 24.1585 23.2447 24.0552 23.8148 22.3052ZM23.8148 22.3052C23.9003 22.0426 24.1825 21.8991 24.445 21.9846 24.7076 22.0701 24.8511 22.3523 24.7656 22.6149ZM24.1956 24.3649C24.1101 24.6275 23.8279 24.771 23.5653 24.6855 23.3027 24.6 23.1592 24.3178 23.2447 24.0552ZM23.7202 24.7101 21.8801 24.7101 21.8801 24.3767 23.7202 24.3767ZM23.7202 24.0434 21.8801 24.0434 21.8801 23.7101 23.7202 23.7101ZM23.7202 23.7101C23.9963 23.7101 24.2202 23.9339 24.2202 24.2101 24.2202 24.4862 23.9963 24.7101 23.7202 24.7101ZM21.8801 24.7101C21.604 24.7101 21.3801 24.4862 21.3801 24.2101 21.3801 23.9339 21.604 23.7101 21.8801 23.7101ZM21.4047 24.3649 20.8347 22.6149 21.1516 22.5116 21.7216 24.2617ZM22.0386 24.1585 21.4686 22.4084 21.7855 22.3052 22.3555 24.0552ZM22.3555 24.0552C22.441 24.3178 22.2975 24.6 22.035 24.6855 21.7724 24.771 21.4902 24.6275 21.4047 24.3649ZM20.8347 22.6149C20.7491 22.3523 20.8927 22.0701 21.1552 21.9846 21.4178 21.8991 21.7 22.0426 21.7855 22.3052ZM21.0166 22.0552 22.5067 20.9751 22.7023 21.245 21.2123 22.3251ZM21.4079 22.595 22.8979 21.5149 23.0936 21.7848 21.6035 22.8649ZM21.6035 22.8649C21.3799 23.0269 21.0673 22.977 20.9053 22.7535 20.7432 22.5299 20.7931 22.2172 21.0166 22.0552ZM22.5067 20.9751C22.7303 20.8131 23.0429 20.863 23.205 21.0865 23.367 21.3101 23.3172 21.6228 23.0936 21.7848ZM23.094 20.1954 25.3241 21.8155 25.1282 22.0852 22.8981 20.4651ZM22.7022 20.7348 24.9323 22.3549 24.7363 22.6245 22.5063 21.0045ZM22.5063 21.0045C22.2829 20.8422 22.2333 20.5295 22.3956 20.3061 22.5579 20.0827 22.8706 20.0331 23.094 20.1954ZM25.3241 21.8155C25.5475 21.9778 25.597 22.2905 25.4347 22.5139 25.2724 22.7373 24.9598 22.7868 24.7363 22.6245ZM25.5058 22.3743 24.6558 24.9944 24.3387 24.8915 25.1887 22.2714ZM24.8717 22.1686 24.0216 24.7887 23.7046 24.6858 24.5546 22.0657ZM24.5546 22.0657C24.6398 21.803 24.9218 21.6592 25.1845 21.7444 25.4472 21.8296 25.591 22.1116 25.5058 22.3743ZM24.6558 24.9944C24.5706 25.2571 24.2885 25.4009 24.0259 25.3157 23.7632 25.2305 23.6194 24.9485 23.7046 24.6858ZM24.1802 25.3401 21.4201 25.3401 21.4201 25.0068 24.1802 25.0068ZM24.1802 24.6734 21.4201 24.6734 21.4201 24.3401 24.1802 24.3401ZM24.1802 24.3401C24.4563 24.3401 24.6802 24.564 24.6802 24.8401 24.6802 25.1162 24.4563 25.3401 24.1802 25.3401ZM21.4201 25.3401C21.1439 25.3401 20.9201 25.1162 20.9201 24.8401 20.9201 24.564 21.1439 24.3401 21.4201 24.3401ZM20.9445 24.9944 20.0945 22.3743 20.4115 22.2714 21.2616 24.8915ZM21.5786 24.7887 20.7286 22.1686 21.0457 22.0657 21.8957 24.6858ZM21.8957 24.6858C21.9809 24.9485 21.8371 25.2305 21.5744 25.3157 21.3117 25.4009 21.0297 25.2571 20.9445 24.9944ZM20.0945 22.3743C20.0093 22.1116 20.1531 21.8296 20.4158 21.7444 20.6784 21.6592 20.9604 21.803 21.0457 22.0657ZM20.2762 21.8155 22.5063 20.1954 22.7022 20.4651 20.4721 22.0852ZM20.668 22.3549 22.8981 20.7348 23.094 21.0045 20.8639 22.6245ZM20.8639 22.6245C20.6405 22.7868 20.3278 22.7373 20.1655 22.5139 20.0032 22.2905 20.0528 21.9778 20.2762 21.8155ZM22.5063 20.1954C22.7297 20.0331 23.0424 20.0827 23.2047 20.3061 23.367 20.5295 23.3174 20.8422 23.094 21.0045ZM23.0943 19.4154 26.0637 21.5757 25.8676 21.8452 22.8982 19.6849ZM22.7021 19.9545 25.6715 22.1148 25.4754 22.3843 22.506 20.224ZM22.506 20.224C22.2827 20.0616 22.2334 19.7489 22.3958 19.5256 22.5583 19.3023 22.871 19.2529 23.0943 19.4154ZM26.0637 21.5757C26.287 21.7381 26.3364 22.0508 26.1739 22.2741 26.0114 22.4974 25.6987 22.5468 25.4754 22.3843ZM26.2453 22.134 25.1159 25.6237 24.7988 25.521 25.9282 22.0313ZM25.611 21.9287 24.4816 25.4184 24.1645 25.3157 25.2939 21.826ZM25.2939 21.826C25.3789 21.5633 25.6608 21.4193 25.9235 21.5043 26.1863 21.5893 26.3303 21.8712 26.2453 22.134ZM25.1159 25.6237C25.0309 25.8864 24.749 26.0304 24.4862 25.9454 24.2235 25.8604 24.0795 25.5785 24.1645 25.3157ZM24.6402 25.9697 20.9601 25.9697 20.9601 25.6364 24.6402 25.6364ZM24.6402 25.303 20.9601 25.303 20.9601 24.9697 24.6402 24.9697ZM24.6402 24.9697C24.9163 24.9697 25.1402 25.1936 25.1402 25.4697 25.1402 25.7458 24.9163 25.9697 24.6402 25.9697ZM20.9601 25.9697C20.6839 25.9697 20.4601 25.7458 20.4601 25.4697 20.4601 25.1936 20.6839 24.9697 20.9601 24.9697ZM20.4848 25.625 19.3443 22.1353 19.6612 22.0318 20.8017 25.5215ZM21.1185 25.4179 19.978 21.9282 20.2948 21.8247 21.4353 25.3144ZM21.4353 25.3144C21.5211 25.5769 21.3779 25.8592 21.1154 25.945 20.8529 26.0307 20.5706 25.8875 20.4848 25.625ZM19.3443 22.1353C19.2585 21.8728 19.4018 21.5905 19.6643 21.5047 19.9267 21.419 20.2091 21.5622 20.2948 21.8247ZM19.5261 21.5752 22.5067 19.4149 22.7023 19.6848 19.7218 21.8451ZM19.9174 22.1149 22.8979 19.9547 23.0936 20.2245 20.113 22.3848ZM20.113 22.3848C19.8894 22.5469 19.5768 22.497 19.4147 22.2734 19.2527 22.0498 19.3026 21.7372 19.5261 21.5752ZM22.5067 19.4149C22.7303 19.2528 23.0429 19.3027 23.205 19.5263 23.367 19.7499 23.3172 20.0625 23.0936 20.2245Z" fill="#7F7F7F" fill-opacity="0.839216"/><path d="M23.0949 21.7561 23.8349 22.2961 23.6384 22.5654 22.8984 22.0254ZM22.7019 22.2946 23.4419 22.8347 23.2454 23.1039 22.5054 22.5639ZM22.5054 22.5639C22.2823 22.4011 22.2335 22.0883 22.3962 21.8653 22.559 21.6422 22.8718 21.5933 23.0949 21.7561ZM23.8349 22.2961C24.058 22.4589 24.1068 22.7717 23.9441 22.9948 23.7813 23.2178 23.4685 23.2667 23.2454 23.1039ZM24.0166 22.8516 23.7366 23.7317 23.419 23.6306 23.699 22.7506ZM23.3813 22.6495 23.1013 23.5295 22.7837 23.4285 23.0637 22.5484ZM23.0637 22.5484C23.1474 22.2853 23.4286 22.1398 23.6918 22.2236 23.9549 22.3073 24.1004 22.5885 24.0166 22.8516ZM23.7366 23.7317C23.6529 23.9948 23.3717 24.1402 23.1085 24.0565 22.8454 23.9728 22.7 23.6916 22.7837 23.4285ZM23.2602 24.0801 22.3401 24.0801 22.3401 23.7467 23.2602 23.7467ZM23.2602 23.4134 22.3401 23.4134 22.3401 23.0801 23.2602 23.0801ZM23.2602 23.0801C23.5363 23.0801 23.7602 23.3039 23.7602 23.5801 23.7602 23.8562 23.5363 24.0801 23.2602 24.0801ZM22.3401 24.0801C22.064 24.0801 21.8401 23.8562 21.8401 23.5801 21.8401 23.3039 22.064 23.0801 22.3401 23.0801ZM21.8637 23.7317 21.5836 22.8516 21.9013 22.7506 22.1813 23.6306ZM22.4989 23.5295 22.2189 22.6495 22.5366 22.5484 22.8166 23.4285ZM22.8166 23.4285C22.9003 23.6916 22.7549 23.9728 22.4917 24.0565 22.2286 24.1402 21.9474 23.9948 21.8637 23.7317ZM21.5836 22.8516C21.4999 22.5885 21.6454 22.3073 21.9085 22.2236 22.1717 22.1398 22.4528 22.2853 22.5366 22.5484ZM21.7654 22.2961 22.5054 21.7561 22.7019 22.0254 21.9619 22.5654ZM22.1584 22.8347 22.8984 22.2946 23.0949 22.5639 22.3548 23.1039ZM22.3548 23.1039C22.1318 23.2667 21.819 23.2178 21.6562 22.9948 21.4934 22.7717 21.5423 22.4589 21.7654 22.2961ZM22.5054 21.7561C22.7285 21.5933 23.0413 21.6422 23.204 21.8653 23.3668 22.0883 23.3179 22.4011 23.0949 22.5639ZM23.0936 20.9751 24.5836 22.0552 24.388 22.3251 22.8979 21.245ZM22.7023 21.5149 24.1924 22.595 23.9967 22.8649 22.5067 21.7848ZM22.5067 21.7848C22.2831 21.6228 22.2332 21.3101 22.3953 21.0865 22.5574 20.863 22.87 20.8131 23.0936 20.9751ZM24.5836 22.0552C24.8072 22.2172 24.8571 22.5299 24.695 22.7535 24.533 22.977 24.2203 23.0269 23.9967 22.8649ZM24.7656 22.6149 24.1956 24.3649 23.8786 24.2617 24.4487 22.5116ZM24.1317 22.4084 23.5617 24.1585 23.2447 24.0552 23.8148 22.3052ZM23.8148 22.3052C23.9003 22.0426 24.1825 21.8991 24.445 21.9846 24.7076 22.0701 24.8511 22.3523 24.7656 22.6149ZM24.1956 24.3649C24.1101 24.6275 23.8279 24.771 23.5653 24.6855 23.3027 24.6 23.1592 24.3178 23.2447 24.0552ZM23.7202 24.7101 21.8801 24.7101 21.8801 24.3767 23.7202 24.3767ZM23.7202 24.0434 21.8801 24.0434 21.8801 23.7101 23.7202 23.7101ZM23.7202 23.7101C23.9963 23.7101 24.2202 23.9339 24.2202 24.2101 24.2202 24.4862 23.9963 24.7101 23.7202 24.7101ZM21.8801 24.7101C21.604 24.7101 21.3801 24.4862 21.3801 24.2101 21.3801 23.9339 21.604 23.7101 21.8801 23.7101ZM21.4047 24.3649 20.8347 22.6149 21.1516 22.5116 21.7216 24.2617ZM22.0386 24.1585 21.4686 22.4084 21.7855 22.3052 22.3555 24.0552ZM22.3555 24.0552C22.441 24.3178 22.2975 24.6 22.035 24.6855 21.7724 24.771 21.4902 24.6275 21.4047 24.3649ZM20.8347 22.6149C20.7491 22.3523 20.8927 22.0701 21.1552 21.9846 21.4178 21.8991 21.7 22.0426 21.7855 22.3052ZM21.0166 22.0552 22.5067 20.9751 22.7023 21.245 21.2123 22.3251ZM21.4079 22.595 22.8979 21.5149 23.0936 21.7848 21.6035 22.8649ZM21.6035 22.8649C21.3799 23.0269 21.0673 22.977 20.9053 22.7535 20.7432 22.5299 20.7931 22.2172 21.0166 22.0552ZM22.5067 20.9751C22.7303 20.8131 23.0429 20.863 23.205 21.0865 23.367 21.3101 23.3172 21.6228 23.0936 21.7848ZM23.094 20.1954 25.3241 21.8155 25.1282 22.0852 22.8981 20.4651ZM22.7022 20.7348 24.9323 22.3549 24.7363 22.6245 22.5063 21.0045ZM22.5063 21.0045C22.2829 20.8422 22.2333 20.5295 22.3956 20.3061 22.5579 20.0827 22.8706 20.0331 23.094 20.1954ZM25.3241 21.8155C25.5475 21.9778 25.597 22.2905 25.4347 22.5139 25.2724 22.7373 24.9598 22.7868 24.7363 22.6245ZM25.5058 22.3743 24.6558 24.9944 24.3387 24.8915 25.1887 22.2714ZM24.8717 22.1686 24.0216 24.7887 23.7046 24.6858 24.5546 22.0657ZM24.5546 22.0657C24.6398 21.803 24.9218 21.6592 25.1845 21.7444 25.4472 21.8296 25.591 22.1116 25.5058 22.3743ZM24.6558 24.9944C24.5706 25.2571 24.2885 25.4009 24.0259 25.3157 23.7632 25.2305 23.6194 24.9485 23.7046 24.6858ZM24.1802 25.3401 21.4201 25.3401 21.4201 25.0068 24.1802 25.0068ZM24.1802 24.6734 21.4201 24.6734 21.4201 24.3401 24.1802 24.3401ZM24.1802 24.3401C24.4563 24.3401 24.6802 24.564 24.6802 24.8401 24.6802 25.1162 24.4563 25.3401 24.1802 25.3401ZM21.4201 25.3401C21.1439 25.3401 20.9201 25.1162 20.9201 24.8401 20.9201 24.564 21.1439 24.3401 21.4201 24.3401ZM20.9445 24.9944 20.0945 22.3743 20.4115 22.2714 21.2616 24.8915ZM21.5786 24.7887 20.7286 22.1686 21.0457 22.0657 21.8957 24.6858ZM21.8957 24.6858C21.9809 24.9485 21.8371 25.2305 21.5744 25.3157 21.3117 25.4009 21.0297 25.2571 20.9445 24.9944ZM20.0945 22.3743C20.0093 22.1116 20.1531 21.8296 20.4158 21.7444 20.6784 21.6592 20.9604 21.803 21.0457 22.0657ZM20.2762 21.8155 22.5063 20.1954 22.7022 20.4651 20.4721 22.0852ZM20.668 22.3549 22.8981 20.7348 23.094 21.0045 20.8639 22.6245ZM20.8639 22.6245C20.6405 22.7868 20.3278 22.7373 20.1655 22.5139 20.0032 22.2905 20.0528 21.9778 20.2762 21.8155ZM22.5063 20.1954C22.7297 20.0331 23.0424 20.0827 23.2047 20.3061 23.367 20.5295 23.3174 20.8422 23.094 21.0045ZM23.0943 19.4154 26.0637 21.5757 25.8676 21.8452 22.8982 19.6849ZM22.7021 19.9545 25.6715 22.1148 25.4754 22.3843 22.506 20.224ZM22.506 20.224C22.2827 20.0616 22.2334 19.7489 22.3958 19.5256 22.5583 19.3023 22.871 19.2529 23.0943 19.4154ZM26.0637 21.5757C26.287 21.7381 26.3364 22.0508 26.1739 22.2741 26.0114 22.4974 25.6987 22.5468 25.4754 22.3843ZM26.2453 22.134 25.1159 25.6237 24.7988 25.521 25.9282 22.0313ZM25.611 21.9287 24.4816 25.4184 24.1645 25.3157 25.2939 21.826ZM25.2939 21.826C25.3789 21.5633 25.6608 21.4193 25.9235 21.5043 26.1863 21.5893 26.3303 21.8712 26.2453 22.134ZM25.1159 25.6237C25.0309 25.8864 24.749 26.0304 24.4862 25.9454 24.2235 25.8604 24.0795 25.5785 24.1645 25.3157ZM24.6402 25.9697 20.9601 25.9697 20.9601 25.6364 24.6402 25.6364ZM24.6402 25.303 20.9601 25.303 20.9601 24.9697 24.6402 24.9697ZM24.6402 24.9697C24.9163 24.9697 25.1402 25.1936 25.1402 25.4697 25.1402 25.7458 24.9163 25.9697 24.6402 25.9697ZM20.9601 25.9697C20.6839 25.9697 20.4601 25.7458 20.4601 25.4697 20.4601 25.1936 20.6839 24.9697 20.9601 24.9697ZM20.4848 25.625 19.3443 22.1353 19.6612 22.0318 20.8017 25.5215ZM21.1185 25.4179 19.978 21.9282 20.2948 21.8247 21.4353 25.3144ZM21.4353 25.3144C21.5211 25.5769 21.3779 25.8592 21.1154 25.945 20.8529 26.0307 20.5706 25.8875 20.4848 25.625ZM19.3443 22.1353C19.2585 21.8728 19.4018 21.5905 19.6643 21.5047 19.9267 21.419 20.2091 21.5622 20.2948 21.8247ZM19.5261 21.5752 22.5067 19.4149 22.7023 19.6848 19.7218 21.8451ZM19.9174 22.1149 22.8979 19.9547 23.0936 20.2245 20.113 22.3848ZM20.113 22.3848C19.8894 22.5469 19.5768 22.497 19.4147 22.2734 19.2527 22.0498 19.3026 21.7372 19.5261 21.5752ZM22.5067 19.4149C22.7303 19.2528 23.0429 19.3027 23.205 19.5263 23.367 19.7499 23.3172 20.0625 23.0936 20.2245Z" fill="#7F7F7F" fill-opacity="0.839216"/></g></g><path d="M1690.58 922.754 1764.58 976.755 1763.23 978.607 1689.23 924.605ZM1687.88 926.456 1761.88 980.458 1760.53 982.309 1686.53 928.307ZM1686.53 928.307C1685 927.188 1684.66 925.038 1685.78 923.504 1686.9 921.971 1689.05 921.635 1690.58 922.754ZM1764.58 976.755C1766.12 977.875 1766.45 980.025 1765.33 981.559 1764.22 983.092 1762.07 983.428 1760.53 982.309ZM1765.83 980.575 1737.83 1068.58 1735.65 1067.88 1763.65 979.88ZM1761.47 979.185 1733.47 1067.19 1731.28 1066.49 1759.28 978.49ZM1759.28 978.49C1759.86 976.681 1761.79 975.681 1763.6 976.257 1765.41 976.832 1766.41 978.765 1765.83 980.575ZM1737.83 1068.58C1737.26 1070.39 1735.32 1071.39 1733.51 1070.81 1731.71 1070.24 1730.71 1068.3 1731.28 1066.49ZM1734.56 1070.97 1642.55 1070.97 1642.55 1068.68 1734.56 1068.68ZM1734.56 1066.39 1642.55 1066.39 1642.55 1064.1 1734.56 1064.1ZM1734.56 1064.1C1736.46 1064.1 1737.99 1065.64 1737.99 1067.54 1737.99 1069.43 1736.46 1070.97 1734.56 1070.97ZM1642.55 1070.97C1640.66 1070.97 1639.12 1069.43 1639.12 1067.54 1639.12 1065.64 1640.66 1064.1 1642.55 1064.1ZM1639.28 1068.58 1611.28 980.575 1613.46 979.88 1641.46 1067.88ZM1643.65 1067.19 1615.65 979.185 1617.83 978.49 1645.83 1066.49ZM1645.83 1066.49C1646.41 1068.3 1645.41 1070.24 1643.6 1070.81 1641.79 1071.39 1639.85 1070.39 1639.28 1068.58ZM1611.28 980.575C1610.7 978.765 1611.7 976.832 1613.51 976.257 1615.32 975.681 1617.25 976.681 1617.83 978.49ZM1612.53 976.755 1686.53 922.754 1687.88 924.605 1613.88 978.607ZM1615.23 980.458 1689.23 926.456 1690.58 928.307 1616.58 982.309ZM1616.58 982.309C1615.05 983.428 1612.9 983.092 1611.78 981.559 1610.66 980.025 1610.99 977.875 1612.53 976.755ZM1686.53 922.754C1688.06 921.635 1690.21 921.971 1691.33 923.504 1692.45 925.038 1692.12 927.188 1690.58 928.307ZM1690.57 844.745 1839.58 952.748 1838.23 954.604 1689.23 846.6ZM1687.88 848.456 1836.89 956.459 1835.54 958.315 1686.54 850.311ZM1686.54 850.311C1685 849.197 1684.66 847.048 1685.77 845.511 1686.89 843.973 1689.04 843.631 1690.57 844.745ZM1839.58 952.748C1841.11 953.862 1841.46 956.012 1840.34 957.549 1839.23 959.086 1837.08 959.429 1835.54 958.315ZM1840.83 956.596 1783.83 1131.6 1781.65 1130.89 1838.65 955.886ZM1836.47 955.177 1779.47 1130.18 1777.29 1129.47 1834.29 954.467ZM1834.29 954.467C1834.88 952.662 1836.82 951.675 1838.63 952.263 1840.43 952.851 1841.42 954.791 1840.83 956.596ZM1783.83 1131.6C1783.24 1133.41 1781.3 1134.39 1779.49 1133.81 1777.69 1133.22 1776.7 1131.28 1777.29 1129.47ZM1780.56 1133.97 1596.55 1133.97 1596.55 1131.68 1780.56 1131.68ZM1780.56 1129.39 1596.55 1129.39 1596.55 1127.1 1780.56 1127.1ZM1780.56 1127.1C1782.46 1127.1 1784 1128.64 1784 1130.54 1784 1132.44 1782.46 1133.97 1780.56 1133.97ZM1596.55 1133.97C1594.65 1133.97 1593.12 1132.44 1593.12 1130.54 1593.12 1128.64 1594.65 1127.1 1596.55 1127.1ZM1593.28 1131.6 1536.28 956.596 1538.46 955.886 1595.46 1130.89ZM1597.64 1130.18 1540.64 955.177 1542.82 954.467 1599.82 1129.47ZM1599.82 1129.47C1600.41 1131.28 1599.42 1133.22 1597.62 1133.81 1595.81 1134.39 1593.87 1133.41 1593.28 1131.6ZM1536.28 956.596C1535.69 954.791 1536.68 952.851 1538.49 952.263 1540.29 951.675 1542.23 952.662 1542.82 954.467ZM1537.53 952.748 1686.54 844.745 1687.88 846.6 1538.88 954.604ZM1540.22 956.459 1689.23 848.456 1690.57 850.311 1541.57 958.315ZM1541.57 958.315C1540.03 959.429 1537.88 959.086 1536.77 957.549 1535.65 956.012 1536 953.862 1537.53 952.748ZM1686.54 844.745C1688.08 843.631 1690.22 843.973 1691.34 845.511 1692.45 847.048 1692.11 849.197 1690.57 850.311ZM1690.58 766.744 1913.58 928.75 1912.24 930.604 1689.23 768.598ZM1687.88 770.452 1910.89 932.458 1909.54 934.312 1686.54 772.307ZM1686.54 772.307C1685 771.191 1684.66 769.041 1685.77 767.505 1686.89 765.969 1689.04 765.628 1690.58 766.744ZM1913.58 928.75C1915.12 929.865 1915.46 932.015 1914.34 933.551 1913.23 935.087 1911.08 935.428 1909.54 934.312ZM1914.83 932.592 1829.83 1194.6 1827.65 1193.89 1912.65 931.884ZM1910.47 931.177 1825.47 1193.19 1823.29 1192.48 1908.29 930.47ZM1908.29 930.47C1908.88 928.664 1910.82 927.675 1912.62 928.261 1914.43 928.847 1915.42 930.786 1914.83 932.592ZM1829.83 1194.6C1829.24 1196.41 1827.31 1197.39 1825.5 1196.81 1823.69 1196.22 1822.7 1194.28 1823.29 1192.48ZM1826.56 1196.98 1550.55 1196.98 1550.55 1194.69 1826.56 1194.69ZM1826.56 1192.39 1550.55 1192.39 1550.55 1190.1 1826.56 1190.1ZM1826.56 1190.1C1828.46 1190.1 1830 1191.64 1830 1193.54 1830 1195.44 1828.46 1196.98 1826.56 1196.98ZM1550.55 1196.98C1548.65 1196.98 1547.11 1195.44 1547.11 1193.54 1547.11 1191.64 1548.65 1190.1 1550.55 1190.1ZM1547.28 1194.6 1462.28 932.592 1464.46 931.884 1549.46 1193.89ZM1551.64 1193.19 1466.64 931.177 1468.82 930.47 1553.82 1192.48ZM1553.82 1192.48C1554.41 1194.28 1553.42 1196.22 1551.61 1196.81 1549.81 1197.39 1547.87 1196.41 1547.28 1194.6ZM1462.28 932.592C1461.69 930.786 1462.68 928.847 1464.49 928.261 1466.29 927.675 1468.23 928.664 1468.82 930.47ZM1463.53 928.75 1686.54 766.744 1687.88 768.598 1464.87 930.604ZM1466.22 932.458 1689.23 770.452 1690.58 772.307 1467.57 934.312ZM1467.57 934.312C1466.03 935.428 1463.88 935.087 1462.77 933.551 1461.65 932.015 1461.99 929.865 1463.53 928.75ZM1686.54 766.744C1688.07 765.628 1690.22 765.969 1691.34 767.505 1692.45 769.041 1692.11 771.191 1690.58 772.307ZM1690.58 688.72 1987.52 904.75 1986.17 906.603 1689.23 690.574ZM1687.88 692.427 1984.83 908.457 1983.48 910.31 1686.53 694.28ZM1686.53 694.28C1685 693.163 1684.66 691.013 1685.78 689.478 1686.89 687.943 1689.04 687.604 1690.58 688.72ZM1987.52 904.75C1989.06 905.867 1989.4 908.017 1988.28 909.552 1987.16 911.087 1985.01 911.427 1983.48 910.31ZM1988.77 908.588 1875.83 1257.56 1873.65 1256.85 1986.59 907.883ZM1984.41 907.177 1871.47 1256.15 1869.29 1255.44 1982.23 906.471ZM1982.23 906.471C1982.81 904.665 1984.75 903.675 1986.56 904.259 1988.36 904.844 1989.36 906.782 1988.77 908.588ZM1875.83 1257.56C1875.25 1259.36 1873.31 1260.35 1871.5 1259.77 1869.7 1259.19 1868.71 1257.25 1869.29 1255.44ZM1872.56 1259.94 1504.55 1259.94 1504.55 1257.65 1872.56 1257.65ZM1872.56 1255.35 1504.55 1255.35 1504.55 1253.06 1872.56 1253.06ZM1872.56 1253.06C1874.46 1253.06 1876 1254.6 1876 1256.5 1876 1258.4 1874.46 1259.94 1872.56 1259.94ZM1504.55 1259.94C1502.65 1259.94 1501.11 1258.4 1501.11 1256.5 1501.11 1254.6 1502.65 1253.06 1504.55 1253.06ZM1501.28 1257.57 1387.23 908.598 1389.41 907.886 1503.46 1256.86ZM1505.64 1256.14 1391.59 907.174 1393.77 906.462 1507.82 1255.43ZM1507.82 1255.43C1508.41 1257.24 1507.42 1259.18 1505.62 1259.77 1503.81 1260.36 1501.87 1259.37 1501.28 1257.57ZM1387.23 908.598C1386.64 906.793 1387.63 904.852 1389.43 904.263 1391.24 903.673 1393.18 904.658 1393.77 906.462ZM1388.48 904.747 1686.54 688.717 1687.88 690.572 1389.83 906.602ZM1391.17 908.458 1689.23 692.428 1690.57 694.283 1392.52 910.313ZM1392.52 910.313C1390.98 911.427 1388.83 911.084 1387.72 909.547 1386.6 908.01 1386.95 905.861 1388.48 904.747ZM1686.54 688.717C1688.08 687.603 1690.22 687.946 1691.34 689.483 1692.45 691.02 1692.11 693.169 1690.57 694.283Z" fill="#7F7F7F" fill-opacity="0.839216"/><path d="M1690.58 922.754 1764.58 976.755 1763.23 978.607 1689.23 924.605ZM1687.88 926.456 1761.88 980.458 1760.53 982.309 1686.53 928.307ZM1686.53 928.307C1685 927.188 1684.66 925.038 1685.78 923.504 1686.9 921.971 1689.05 921.635 1690.58 922.754ZM1764.58 976.755C1766.12 977.875 1766.45 980.025 1765.33 981.559 1764.22 983.092 1762.07 983.428 1760.53 982.309ZM1765.83 980.575 1737.83 1068.58 1735.65 1067.88 1763.65 979.88ZM1761.47 979.185 1733.47 1067.19 1731.28 1066.49 1759.28 978.49ZM1759.28 978.49C1759.86 976.681 1761.79 975.681 1763.6 976.257 1765.41 976.832 1766.41 978.765 1765.83 980.575ZM1737.83 1068.58C1737.26 1070.39 1735.32 1071.39 1733.51 1070.81 1731.71 1070.24 1730.71 1068.3 1731.28 1066.49ZM1734.56 1070.97 1642.55 1070.97 1642.55 1068.68 1734.56 1068.68ZM1734.56 1066.39 1642.55 1066.39 1642.55 1064.1 1734.56 1064.1ZM1734.56 1064.1C1736.46 1064.1 1737.99 1065.64 1737.99 1067.54 1737.99 1069.43 1736.46 1070.97 1734.56 1070.97ZM1642.55 1070.97C1640.66 1070.97 1639.12 1069.43 1639.12 1067.54 1639.12 1065.64 1640.66 1064.1 1642.55 1064.1ZM1639.28 1068.58 1611.28 980.575 1613.46 979.88 1641.46 1067.88ZM1643.65 1067.19 1615.65 979.185 1617.83 978.49 1645.83 1066.49ZM1645.83 1066.49C1646.41 1068.3 1645.41 1070.24 1643.6 1070.81 1641.79 1071.39 1639.85 1070.39 1639.28 1068.58ZM1611.28 980.575C1610.7 978.765 1611.7 976.832 1613.51 976.257 1615.32 975.681 1617.25 976.681 1617.83 978.49ZM1612.53 976.755 1686.53 922.754 1687.88 924.605 1613.88 978.607ZM1615.23 980.458 1689.23 926.456 1690.58 928.307 1616.58 982.309ZM1616.58 982.309C1615.05 983.428 1612.9 983.092 1611.78 981.559 1610.66 980.025 1610.99 977.875 1612.53 976.755ZM1686.53 922.754C1688.06 921.635 1690.21 921.971 1691.33 923.504 1692.45 925.038 1692.12 927.188 1690.58 928.307ZM1690.57 844.745 1839.58 952.748 1838.23 954.604 1689.23 846.6ZM1687.88 848.456 1836.89 956.459 1835.54 958.315 1686.54 850.311ZM1686.54 850.311C1685 849.197 1684.66 847.048 1685.77 845.511 1686.89 843.973 1689.04 843.631 1690.57 844.745ZM1839.58 952.748C1841.11 953.862 1841.46 956.012 1840.34 957.549 1839.23 959.086 1837.08 959.429 1835.54 958.315ZM1840.83 956.596 1783.83 1131.6 1781.65 1130.89 1838.65 955.886ZM1836.47 955.177 1779.47 1130.18 1777.29 1129.47 1834.29 954.467ZM1834.29 954.467C1834.88 952.662 1836.82 951.675 1838.63 952.263 1840.43 952.851 1841.42 954.791 1840.83 956.596ZM1783.83 1131.6C1783.24 1133.41 1781.3 1134.39 1779.49 1133.81 1777.69 1133.22 1776.7 1131.28 1777.29 1129.47ZM1780.56 1133.97 1596.55 1133.97 1596.55 1131.68 1780.56 1131.68ZM1780.56 1129.39 1596.55 1129.39 1596.55 1127.1 1780.56 1127.1ZM1780.56 1127.1C1782.46 1127.1 1784 1128.64 1784 1130.54 1784 1132.44 1782.46 1133.97 1780.56 1133.97ZM1596.55 1133.97C1594.65 1133.97 1593.12 1132.44 1593.12 1130.54 1593.12 1128.64 1594.65 1127.1 1596.55 1127.1ZM1593.28 1131.6 1536.28 956.596 1538.46 955.886 1595.46 1130.89ZM1597.64 1130.18 1540.64 955.177 1542.82 954.467 1599.82 1129.47ZM1599.82 1129.47C1600.41 1131.28 1599.42 1133.22 1597.62 1133.81 1595.81 1134.39 1593.87 1133.41 1593.28 1131.6ZM1536.28 956.596C1535.69 954.791 1536.68 952.851 1538.49 952.263 1540.29 951.675 1542.23 952.662 1542.82 954.467ZM1537.53 952.748 1686.54 844.745 1687.88 846.6 1538.88 954.604ZM1540.22 956.459 1689.23 848.456 1690.57 850.311 1541.57 958.315ZM1541.57 958.315C1540.03 959.429 1537.88 959.086 1536.77 957.549 1535.65 956.012 1536 953.862 1537.53 952.748ZM1686.54 844.745C1688.08 843.631 1690.22 843.973 1691.34 845.511 1692.45 847.048 1692.11 849.197 1690.57 850.311ZM1690.58 766.744 1913.58 928.75 1912.24 930.604 1689.23 768.598ZM1687.88 770.452 1910.89 932.458 1909.54 934.312 1686.54 772.307ZM1686.54 772.307C1685 771.191 1684.66 769.041 1685.77 767.505 1686.89 765.969 1689.04 765.628 1690.58 766.744ZM1913.58 928.75C1915.12 929.865 1915.46 932.015 1914.34 933.551 1913.23 935.087 1911.08 935.428 1909.54 934.312ZM1914.83 932.592 1829.83 1194.6 1827.65 1193.89 1912.65 931.884ZM1910.47 931.177 1825.47 1193.19 1823.29 1192.48 1908.29 930.47ZM1908.29 930.47C1908.88 928.664 1910.82 927.675 1912.62 928.261 1914.43 928.847 1915.42 930.786 1914.83 932.592ZM1829.83 1194.6C1829.24 1196.41 1827.31 1197.39 1825.5 1196.81 1823.69 1196.22 1822.7 1194.28 1823.29 1192.48ZM1826.56 1196.98 1550.55 1196.98 1550.55 1194.69 1826.56 1194.69ZM1826.56 1192.39 1550.55 1192.39 1550.55 1190.1 1826.56 1190.1ZM1826.56 1190.1C1828.46 1190.1 1830 1191.64 1830 1193.54 1830 1195.44 1828.46 1196.98 1826.56 1196.98ZM1550.55 1196.98C1548.65 1196.98 1547.11 1195.44 1547.11 1193.54 1547.11 1191.64 1548.65 1190.1 1550.55 1190.1ZM1547.28 1194.6 1462.28 932.592 1464.46 931.884 1549.46 1193.89ZM1551.64 1193.19 1466.64 931.177 1468.82 930.47 1553.82 1192.48ZM1553.82 1192.48C1554.41 1194.28 1553.42 1196.22 1551.61 1196.81 1549.81 1197.39 1547.87 1196.41 1547.28 1194.6ZM1462.28 932.592C1461.69 930.786 1462.68 928.847 1464.49 928.261 1466.29 927.675 1468.23 928.664 1468.82 930.47ZM1463.53 928.75 1686.54 766.744 1687.88 768.598 1464.87 930.604ZM1466.22 932.458 1689.23 770.452 1690.58 772.307 1467.57 934.312ZM1467.57 934.312C1466.03 935.428 1463.88 935.087 1462.77 933.551 1461.65 932.015 1461.99 929.865 1463.53 928.75ZM1686.54 766.744C1688.07 765.628 1690.22 765.969 1691.34 767.505 1692.45 769.041 1692.11 771.191 1690.58 772.307ZM1690.58 688.72 1987.52 904.75 1986.17 906.603 1689.23 690.574ZM1687.88 692.427 1984.83 908.457 1983.48 910.31 1686.53 694.28ZM1686.53 694.28C1685 693.163 1684.66 691.013 1685.78 689.478 1686.89 687.943 1689.04 687.604 1690.58 688.72ZM1987.52 904.75C1989.06 905.867 1989.4 908.017 1988.28 909.552 1987.16 911.087 1985.01 911.427 1983.48 910.31ZM1988.77 908.588 1875.83 1257.56 1873.65 1256.85 1986.59 907.883ZM1984.41 907.177 1871.47 1256.15 1869.29 1255.44 1982.23 906.471ZM1982.23 906.471C1982.81 904.665 1984.75 903.675 1986.56 904.259 1988.36 904.844 1989.36 906.782 1988.77 908.588ZM1875.83 1257.56C1875.25 1259.36 1873.31 1260.35 1871.5 1259.77 1869.7 1259.19 1868.71 1257.25 1869.29 1255.44ZM1872.56 1259.94 1504.55 1259.94 1504.55 1257.65 1872.56 1257.65ZM1872.56 1255.35 1504.55 1255.35 1504.55 1253.06 1872.56 1253.06ZM1872.56 1253.06C1874.46 1253.06 1876 1254.6 1876 1256.5 1876 1258.4 1874.46 1259.94 1872.56 1259.94ZM1504.55 1259.94C1502.65 1259.94 1501.11 1258.4 1501.11 1256.5 1501.11 1254.6 1502.65 1253.06 1504.55 1253.06ZM1501.28 1257.57 1387.23 908.598 1389.41 907.886 1503.46 1256.86ZM1505.64 1256.14 1391.59 907.174 1393.77 906.462 1507.82 1255.43ZM1507.82 1255.43C1508.41 1257.24 1507.42 1259.18 1505.62 1259.77 1503.81 1260.36 1501.87 1259.37 1501.28 1257.57ZM1387.23 908.598C1386.64 906.793 1387.63 904.852 1389.43 904.263 1391.24 903.673 1393.18 904.658 1393.77 906.462ZM1388.48 904.747 1686.54 688.717 1687.88 690.572 1389.83 906.602ZM1391.17 908.458 1689.23 692.428 1690.57 694.283 1392.52 910.313ZM1392.52 910.313C1390.98 911.427 1388.83 911.084 1387.72 909.547 1386.6 908.01 1386.95 905.861 1388.48 904.747ZM1686.54 688.717C1688.08 687.603 1690.22 687.946 1691.34 689.483 1692.45 691.02 1692.11 693.169 1690.57 694.283Z" fill="#7F7F7F" fill-opacity="0.839216"/></g><g clip-path="url(#clip8)"><g clip-path="url(#clip9)" filter="url(#fx1)" transform="translate(1536 813)"><g clip-path="url(#clip10)"><path d="M152.055 16.2178 414 113.248 303.06 405.218 16 385.257 45.0518 163.25Z" fill="#50CC6E" fill-opacity="0.890196"/></g></g></g><g clip-path="url(#clip11)"><g clip-path="url(#clip12)" filter="url(#fx2)" transform="translate(1455 931)"><g clip-path="url(#clip13)"><path d="M223.016 15.8479 331.7 81.444 288.588 207.608 91.8716 297.218 16.2999 49.903Z" fill="#C7D53F" fill-opacity="0.85098"/></g></g></g><g clip-path="url(#clip14)"><path d="M1688.06 822 1950 919.03 1839.06 1211 1552 1191.04 1581.05 969.032Z" fill="#50CC6E" fill-opacity="0.890196"/></g><g clip-path="url(#clip15)"><path d="M1688.06 882 1819 961.031 1767.06 1113.04 1530.05 1221 1439 923.03Z" fill="#C7D53F" fill-opacity="0.85098"/></g><g clip-path="url(#clip16)"><text fill="#4F6228" font-family="Times New Roman,Times New Roman_MSFontService,sans-serif" font-weight="400" font-size="48" transform="matrix(1 0 0 1 1565.53 666)">Temperature</text></g><g clip-path="url(#clip17)"><text fill="#4F6228" font-family="Times New Roman,Times New Roman_MSFontService,sans-serif" font-weight="400" font-size="48" transform="matrix(1 0 0 1 1997.79 918)">Air Humidity</text></g><g clip-path="url(#clip18)"><text fill="#4F6228" font-family="Times New Roman,Times New Roman_MSFontService,sans-serif" font-weight="400" font-size="48" transform="matrix(1 0 0 1 1879.63 1282)">VPD</text></g><g clip-path="url(#clip19)"><text fill="#4F6228" font-family="Times New Roman,Times New Roman_MSFontService,sans-serif" font-weight="400" font-size="48" transform="matrix(1 0 0 1 1196.53 1282)">Solar Radiation</text></g><g clip-path="url(#clip20)"><text fill="#4F6228" font-family="Times New Roman,Times New Roman_MSFontService,sans-serif" font-weight="400" font-size="48" transform="matrix(1 0 0 1 1105.02 918)">Soil Humidity</text></g><g clip-path="url(#clip21)"><g clip-path="url(#clip22)"><g clip-path="url(#clip23)" filter="url(#fx3)" transform="matrix(4.00495 0 0 4.0125 2261 862)"><g clip-path="url(#clip24)"><rect x="20.245" y="20.0644" width="161.51" height="39.7882" stroke="#FF0000" stroke-linejoin="round" stroke-miterlimit="10" fill="#FFFFFF"/></g></g></g><rect x="2351.5" y="926.5" width="628" height="155" stroke="url(#stroke25)" stroke-width="3.4375" stroke-linejoin="round" stroke-miterlimit="10" fill="none"/></g><g clip-path="url(#clip26)"><rect x="2374" y="954" width="22" height="22" fill="#50CC6E" fill-opacity="0.890196"/></g><g clip-path="url(#clip27)"><text fill="#7F7F7F" font-family="Calibri,Calibri_MSFontService,sans-serif" font-weight="400" font-size="41" transform="matrix(1 0 0 1 2405.79 977)">Non-drought conditions(600mm)</text></g><g clip-path="url(#clip28)"><rect x="2374" y="1031" width="22" height="23" fill="#C7D53F" fill-opacity="0.85098"/></g><g clip-path="url(#clip29)"><text fill="#7F7F7F" font-family="Calibri,Calibri_MSFontService,sans-serif" font-weight="400" font-size="41" transform="matrix(1 0 0 1 2405.79 1054)">Drought conditions(100mm)</text></g><rect x="1025.5" y="504.5" width="1982" height="1000" stroke="#4F81BD" stroke-width="3.4375" stroke-linejoin="round" stroke-miterlimit="10" fill="none"/></g></svg>