<svg width="3787" height="1441" xmlns="http://www.w3.org/2000/svg" xmlns:xlink="http://www.w3.org/1999/xlink" overflow="hidden"><defs><clipPath id="clip0"><rect x="417" y="462" width="3787" height="1441"/></clipPath></defs><g clip-path="url(#clip0)" transform="translate(-417 -462)"><path d="M426 888.094C426 856.01 452.009 830 484.094 830L1011.91 830C1043.99 830 1070 856.01 1070 888.094L1070 942.906C1070 974.99 1043.99 1001 1011.91 1001L484.094 1001C452.009 1001 426 974.99 426 942.906Z" stroke="#2D8199" stroke-width="10.3125" stroke-miterlimit="8" fill="#DAF0F8" fill-rule="evenodd"/><text font-family="Lucida Handwriting,Lucida Handwriting_MSFontService,sans-serif" font-style="italic" font-weight="400" font-size="50" transform="matrix(1 0 0 1 637.941 900)">Annual  <tspan font-size="50" x="-76.7708" y="61">precipitation</tspan></text><path d="M1327 1321.09C1327 1289.01 1353.01 1263 1385.09 1263L1602.91 1263C1634.99 1263 1661 1289.01 1661 1321.09L1661 1375.91C1661 1407.99 1634.99 1434 1602.91 1434L1385.09 1434C1353.01 1434 1327 1407.99 1327 1375.91Z" fill="#2D8199" fill-rule="evenodd"/><text fill="#FFFFFF" font-family="Lucida Handwriting,Lucida Handwriting_MSFontService,sans-serif" font-style="italic" font-weight="400" font-size="55" transform="matrix(1 0 0 1 1399.44 1364)">Eq.(5)</text><path d="M2750 1726.09C2750 1694.01 2776.01 1668 2808.09 1668L3299.91 1668C3331.99 1668 3358 1694.01 3358 1726.09L3358 1780.91C3358 1812.99 3331.99 1839 3299.91 1839L2808.09 1839C2776.01 1839 2750 1812.99 2750 1780.91Z" stroke="#ADA464" stroke-width="10.3125" stroke-miterlimit="8" fill="#FFF2CD" fill-rule="evenodd"/><text font-family="Lucida Handwriting,Lucida Handwriting_MSFontService,sans-serif" font-style="italic" font-weight="400" font-size="55" transform="matrix(1 0 0 1 2860.41 1769)">Module (10)</text><path d="M417 520.094C417 488.009 443.009 462 475.094 462L804.906 462C836.991 462 863 488.009 863 520.094L863 574.906C863 606.99 836.991 633 804.906 633L475.094 633C443.009 633 417 606.99 417 574.906Z" fill="#2D8199" fill-rule="evenodd"/><text fill="#FFFFFF" font-family="Lucida Handwriting,Lucida Handwriting_MSFontService,sans-serif" font-style="italic" font-weight="400" font-size="55" transform="matrix(1 0 0 1 477.927 563)">Start  here</text><path d="M428 1159.09C428 1127.01 454.009 1101 486.094 1101L1026.91 1101C1058.99 1101 1085 1127.01 1085 1159.09L1085 1213.91C1085 1245.99 1058.99 1272 1026.91 1272L486.094 1272C454.009 1272 428 1245.99 428 1213.91Z" stroke="#2D8199" stroke-width="10.3125" stroke-miterlimit="8" fill="#DAF0F8" fill-rule="evenodd"/><text font-family="Lucida Handwriting,Lucida Handwriting_MSFontService,sans-serif" font-style="italic" font-weight="400" font-size="55" transform="matrix(1 0 0 1 550.896 1169)">Precipitation  <tspan font-size="55" x="44.9854" y="66">coefficient</tspan></text><path d="M435 1479.09C435 1447.01 461.009 1421 493.093 1421L1026.91 1421C1058.99 1421 1085 1447.01 1085 1479.09L1085 1533.91C1085 1565.99 1058.99 1592 1026.91 1592L493.093 1592C461.009 1592 435 1565.99 435 1533.91Z" stroke="#2D8199" stroke-width="10.3125" stroke-miterlimit="8" fill="#DAF0F8" fill-rule="evenodd"/><text font-family="Lucida Handwriting,Lucida Handwriting_MSFontService,sans-serif" font-style="italic" font-weight="400" font-size="55" transform="matrix(1 0 0 1 521 1523)">Natural factors</text><path d="M1935 1322.09C1935 1290.01 1961.01 1264 1993.09 1264L2520.91 1264C2552.99 1264 2579 1290.01 2579 1322.09L2579 1376.91C2579 1408.99 2552.99 1435 2520.91 1435L1993.09 1435C1961.01 1435 1935 1408.99 1935 1376.91Z" stroke="#2D8199" stroke-width="10.3125" stroke-miterlimit="8" fill="#DAF0F8" fill-rule="evenodd"/><text font-family="Lucida Handwriting,Lucida Handwriting_MSFontService,sans-serif" font-style="italic" font-weight="400" font-size="50" transform="matrix(1 0 0 1 2009.71 1364)">Energy Increment</text><path d="M1085 1178C1119.79 1178 1148 1192.73 1148 1210.9L1148 1488.1C1148 1506.27 1119.79 1521 1085 1521" stroke="#2D8199" stroke-width="10.3125" stroke-miterlimit="8" fill="none" fill-rule="evenodd"/><path d="M0 0 179.041 1.48579" stroke="#2D8199" stroke-width="10.3125" stroke-miterlimit="8" fill="none" fill-rule="evenodd" transform="matrix(1 0 0 -1 1148 1349.49)"/><path d="M1173 983.094C1173 951.01 1199.01 925 1231.09 925L1758.91 925C1790.99 925 1817 951.01 1817 983.094L1817 1037.91C1817 1069.99 1790.99 1096 1758.91 1096L1231.09 1096C1199.01 1096 1173 1069.99 1173 1037.91Z" stroke="#2D8199" stroke-width="10.3125" stroke-miterlimit="8" fill="#DAF0F8" fill-rule="evenodd"/><text font-family="Lucida Handwriting,Lucida Handwriting_MSFontService,sans-serif" font-style="italic" font-weight="400" font-size="50" transform="matrix(1 0 0 1 1260.55 1025)">Solar Radiation</text><path d="M5.15621-0.0191766 5.67926 140.618-4.63317 140.657-5.15621 0.0191766ZM15.9725 135.424 0.61893 166.419-14.9648 135.539Z" fill="#2D8199" transform="matrix(-1 0 0 1 1494.62 1096)"/><path d="M753.156 1001 753.156 1075.26 742.844 1075.26 742.844 1001ZM763.469 1070.11 748 1101.05 732.531 1070.11Z" fill="#2D8199"/><path d="M1661.03 1342.84 1908.79 1344.21 1908.74 1354.52 1660.97 1353.16ZM1903.69 1333.87 1934.55 1349.51 1903.52 1364.81Z" fill="#2D8199"/><path d="M1935 998.094C1935 966.01 1961.01 940 1993.09 940L2533.91 940C2565.99 940 2592 966.01 2592 998.094L2592 1052.91C2592 1084.99 2565.99 1111 2533.91 1111L1993.09 1111C1961.01 1111 1935 1084.99 1935 1052.91Z" stroke="#2D8199" stroke-width="10.3125" stroke-miterlimit="8" fill="#DAF0F8" fill-rule="evenodd"/><text font-family="Lucida Handwriting,Lucida Handwriting_MSFontService,sans-serif" font-style="italic" font-weight="400" font-size="55" transform="matrix(1 0 0 1 2115.46 1008)">Evolution <tspan font-size="55" x="-12.3064" y="66">coefficient</tspan></text><path d="M3471 1099.09C3471 1067.01 3497.01 1041 3529.09 1041L4062.91 1041C4094.99 1041 4121 1067.01 4121 1099.09L4121 1153.91C4121 1185.99 4094.99 1212 4062.91 1212L3529.09 1212C3497.01 1212 3471 1185.99 3471 1153.91Z" stroke="#2D8199" stroke-width="10.3125" stroke-miterlimit="8" fill="#DAF0F8" fill-rule="evenodd"/><text font-family="Lucida Handwriting,Lucida Handwriting_MSFontService,sans-serif" font-style="italic" font-weight="400" font-size="55" transform="matrix(1 0 0 1 3556.8 1143)">Natural factors</text><path d="M3471 1141C3440.07 1141 3415 1127.91 3415 1111.76L3415 896.241C3415 880.091 3440.07 867 3471 867" stroke="#2D8199" stroke-width="10.3125" stroke-miterlimit="8" fill="none" fill-rule="evenodd"/><path d="M3415.66 1004.27 3266 1003" stroke="#2D8199" stroke-width="10.3125" stroke-miterlimit="8" fill="none" fill-rule="evenodd"/><path d="M2931 975.094C2931 943.01 2957.01 917 2989.09 917L3207.91 917C3239.99 917 3266 943.01 3266 975.094L3266 1029.91C3266 1061.99 3239.99 1088 3207.91 1088L2989.09 1088C2957.01 1088 2931 1061.99 2931 1029.91Z" fill="#2D8199" fill-rule="evenodd"/><text fill="#FFFFFF" font-family="Lucida Handwriting,Lucida Handwriting_MSFontService,sans-serif" font-style="italic" font-weight="400" font-size="55" transform="matrix(1 0 0 1 3003.67 1019)">Eq.(7)</text><path d="M2776 1323.09C2776 1291.01 2802.01 1265 2834.09 1265L3362.91 1265C3394.99 1265 3421 1291.01 3421 1323.09L3421 1377.91C3421 1409.99 3394.99 1436 3362.91 1436L2834.09 1436C2802.01 1436 2776 1409.99 2776 1377.91Z" stroke="#2D8199" stroke-width="10.3125" stroke-miterlimit="8" fill="#DAF0F8" fill-rule="evenodd"/><text font-family="Lucida Handwriting,Lucida Handwriting_MSFontService,sans-serif" font-style="italic" font-weight="400" font-size="50" transform="matrix(1 0 0 1 2851.28 1365)">Energy Increment</text><path d="M3468 848.094C3468 816.009 3494.01 790 3526.09 790L4065.91 790C4097.99 790 4124 816.009 4124 848.094L4124 902.906C4124 934.991 4097.99 961 4065.91 961L3526.09 961C3494.01 961 3468 934.991 3468 902.906Z" stroke="#2D8199" stroke-width="10.3125" stroke-miterlimit="8" fill="#DAF0F8" fill-rule="evenodd"/><text font-family="Lucida Handwriting,Lucida Handwriting_MSFontService,sans-serif" font-style="italic" font-weight="400" font-size="55" transform="matrix(1 0 0 1 3590.32 858)">Precipitation  <tspan font-size="55" x="44.9854" y="66">coefficient</tspan></text><path d="M3103.16 1088 3103.16 1238.87 3092.84 1238.87 3092.84 1088ZM3113.47 1233.71 3098 1264.65 3082.53 1233.71Z" fill="#2D8199"/><path d="M2589 1052C2641.47 1052 2684 1070.68 2684 1093.73L2684 1220.85C2684 1243.9 2685.57 1263 2590 1263" stroke="#2D8199" stroke-width="10.3125" stroke-miterlimit="8" fill="none" fill-rule="evenodd"/><rect x="2589" y="1144" width="154" height="128" fill="#FFFFFF"/><path d="M2684 1135 2684 1347.77" stroke="#2D8199" stroke-width="10.3125" stroke-miterlimit="8" fill="none" fill-rule="evenodd"/><path d="M2750.64 1355.84 2604.76 1355.26 2604.8 1344.95 2750.68 1345.53ZM2745.57 1335.19 2776.44 1350.78 2745.44 1366.13ZM2609.88 1365.59 2579 1350 2610 1334.65Z" fill="#2D8199"/><path d="M3117 1434C3117 1491.99 3092.45 1539 3062.17 1539L2278.83 1539C2248.55 1539 2224 1491.99 2224 1434" stroke="#2D8199" stroke-width="10.3125" stroke-miterlimit="8" fill="none" fill-rule="evenodd"/><path d="M3059.16 1543 3059.16 1641.74 3048.84 1641.74 3048.84 1543ZM3069.47 1636.58 3054 1667.52 3038.53 1636.58Z" fill="#2D8199"/><path d="M2280.16 1568.78 2280.16 1667.23 2269.84 1667.23 2269.84 1568.78ZM2259.53 1573.94 2275 1543 2290.47 1573.94Z" fill="#2D8199"/><path d="M2622.78 1747.84 2750.33 1747.84 2750.33 1758.16 2622.78 1758.16ZM2627.94 1768.47 2597 1753 2627.94 1737.53Z" fill="#2D8199"/><path d="M1953 1726.09C1953 1694.01 1979.01 1668 2011.09 1668L2538.91 1668C2570.99 1668 2597 1694.01 2597 1726.09L2597 1780.91C2597 1812.99 2570.99 1839 2538.91 1839L2011.09 1839C1979.01 1839 1953 1812.99 1953 1780.91Z" stroke="#2D8199" stroke-width="10.3125" stroke-miterlimit="8" fill="#DAF0F8" fill-rule="evenodd"/><text font-family="Lucida Handwriting,Lucida Handwriting_MSFontService,sans-serif" font-style="italic" font-weight="400" font-size="50" transform="matrix(1 0 0 1 2064.38 1768)">Energy Density</text><rect x="1077" y="1592" width="62.9999" height="161" fill="#FFFFFF"/><path d="M753.156 1621.78 753.157 1684.54 742.844 1684.54 742.844 1621.78ZM732.531 1626.94 748 1596 763.469 1626.94Z" fill="#2D8199"/><path d="M1772 1681C1772 1720.21 1746.18 1752 1714.34 1752L805.664 1752C773.817 1752 748 1720.21 748 1681" stroke="#2D8199" stroke-width="10.3125" stroke-miterlimit="8" fill="none" fill-rule="evenodd"/><rect x="1561" y="1673" width="305" height="230" fill="#FFFFFF"/><path d="M1530 1752 1952.89 1753.07" stroke="#2D8199" stroke-width="10.3125" stroke-miterlimit="8" fill="none" fill-rule="evenodd"/><path d="M3499 1415.09C3499 1383.01 3525.01 1357 3557.09 1357L4047.91 1357C4079.99 1357 4106 1383.01 4106 1415.09L4106 1469.91C4106 1501.99 4079.99 1528 4047.91 1528L3557.09 1528C3525.01 1528 3499 1501.99 3499 1469.91Z" stroke="#ADA464" stroke-width="10.3125" stroke-miterlimit="8" fill="#FFF2CD" fill-rule="evenodd"/><text font-family="Lucida Handwriting,Lucida Handwriting_MSFontService,sans-serif" font-style="italic" font-weight="400" font-size="55" transform="matrix(1 0 0 1 3608.94 1459)">Module (25)</text><path d="M629.156 607 629.156 804.489 618.844 804.489 618.844 607ZM639.469 799.332 624 830.27 608.531 799.332Z" fill="#2D8199"/><path d="M3454.86 1759.88 3357.91 1758.16 3358.09 1747.84 3455.04 1749.57ZM3450.07 1739.16 3480.73 1755.18 3449.52 1770.1Z" fill="#2D8199"/><path d="M3480 1729.4C3480 1698.25 3505.25 1673 3536.4 1673L4067.6 1673C4098.75 1673 4124 1698.25 4124 1729.4L4124 1782.6C4124 1813.75 4098.75 1839 4067.6 1839L3536.4 1839C3505.25 1839 3480 1813.75 3480 1782.6Z" stroke="#2D8199" stroke-width="10.3125" stroke-miterlimit="8" fill="#DAF0F8" fill-rule="evenodd"/><text font-family="Lucida Handwriting,Lucida Handwriting_MSFontService,sans-serif" font-style="italic" font-weight="400" font-size="50" transform="matrix(1 0 0 1 3551.36 1770)">Maximum Energy</text><path d="M3807.16 1553.78 3807.16 1672.51 3796.84 1672.51 3796.84 1553.78ZM3786.53 1558.94 3802 1528 3817.47 1558.94Z" fill="#2D8199"/><path d="M4136.94 1458.47 4106 1443 4136.94 1427.53Z" fill="#2D8199"/><path d="M4131 709C4168.56 709 4199 733.726 4199 764.228L4199 1387.77C4199 1418.27 4168.56 1443 4131 1443" stroke="#2D8199" stroke-width="10.3125" stroke-miterlimit="8" fill="none" fill-rule="evenodd"/><path d="M863 825C863 760.935 879.807 709 900.539 709L2554.46 709C2575.19 709 2592 760.935 2592 825" stroke="#2D8199" stroke-width="10.3125" stroke-miterlimit="8" fill="none" fill-rule="evenodd"/><rect x="2160" y="619" width="503" height="288" fill="#FFFFFF"/><path d="M1294 709 4131.34 709.001" stroke="#2D8199" stroke-width="10.3125" stroke-miterlimit="8" fill="none" fill-rule="evenodd"/></g></svg>