<svg xmlns:xlink="http://www.w3.org/1999/xlink" height="804" width="1132" xmlns="http://www.w3.org/2000/svg" xmlns:ev="http://www.w3.org/2001/xml-events" viewBox="0 0 1132 804"><style type="text/css"><![CDATA[
.st6 {fill:#ffd900;font-family:Arial;font-size:26pt}
.st7 {fill:#ffd900;font-family:Times New Roman;font-size:14pt;font-weight:bold}
.st1 {fill:#ffffff;font-family:Times New Roman;font-size:12pt}
.st3 {fill:#ffffff;font-family:Times New Roman;font-size:18pt}
.st4 {font-size:12pt}
.st2 {font-size:14pt}
.st5 {font-weight:bold}
]]></style><defs/><g transform="translate(5,5)" id="page1"><rect height="794" y="0" width="1123" stroke="#808080" fill="#ffffff" x="0"/><g transform="translate(76.46,38.98)"/><g transform="translate(452.03,205)" id="shape1"><path stroke="#d2b279" fill="#d2b279" d="M0,152.9C0,68.4,68.5,0,153,0C237.4,0,305.9,68.4,305.9,152.9C305.9,159.1,305.6,165.3,304.8,171.4C289.2,166,272.4,163.1,254.9,163.1C215.8,163.1,180,177.8,153,202C125.9,177.8,90.2,163.1,51,163.1C33.5,163.1,16.7,166,1.1,171.4C.4,165.3,0,159.1,0,152.9z"/><text class="st1"><tspan y="104.7" class="st2" x="150.5"> </tspan><tspan y="124" x="41.1">total concentration of pollution gas</tspan></text></g><g transform="translate(349.53,378.27)" id="shape2"><path stroke="#7d8a38" fill="#7d8a38" d="M0,144.6C0,77.6,43.1,20.7,103.1,0C110.2,58.8,150.7,107.3,205.1,126.1C204.3,132.1,204,138.3,204,144.6C204,189.8,223.7,230.5,254.9,258.5C227.9,282.7,192.1,297.5,153,297.5C68.5,297.5,0,229,0,144.6z"/><text class="st3"><tspan y="92" x="113.1"> </tspan><tspan y="149.3" x="47.1">Soil and Water </tspan><tspan y="178" x="73.8">Pollution</tspan><tspan y="227.3" class="st4" x="86.4">pH Value</tspan></text></g><g transform="translate(605.62,377.39)" id="shape3"><path stroke="#77a67a" fill="#77a67a" d="M151.9,0C211.8,20.7,254.9,77.6,254.9,144.6C254.9,229,186.5,297.5,102,297.5C62.8,297.5,27.1,282.7,0,258.5C31.3,230.5,51,189.8,51,144.6C51,138.3,50.6,132.1,49.9,126.1C104.3,107.3,144.8,58.8,151.9,0z"/><text class="st3"><tspan y="157.7" class="st5" x="73.1">Ecological </tspan><tspan y="186.4" class="st5" x="73.1">Restrictions</tspan><tspan y="206.4" class="st4" x="73.1">energy density</tspan><tspan y="225.1" class="st4" x="73.1">natural death</tspan></text></g><path fill="#00610c" d="M49.9,0C76.8,24.1,95.2,57.7,99.8,95.4C84.1,100.8,67.3,103.8,49.9,103.8C32.4,103.8,15.6,100.8,0,95.4C4.6,57.7,22.9,24.1,49.9,0z" transform="translate(550.12,405.33)" id="shape4"/><g transform="translate(577.71,546.22)" id="shape5"><text class="st6"><tspan y="35.3" x="2.8">03</tspan></text></g><g transform="translate(478,387.32)" id="shape6"><text class="st6"><tspan y="35.3" x="2.8">01</tspan></text></g><g transform="translate(673.75,387.32)" id="shape7"><text class="st6"><tspan y="35.3" x="2.8">02</tspan></text></g><g transform="translate(526.55,385.58)"><path stroke="#e1a297" fill="#e1a297" d="M0,34.8C0,15.6,15.5,0,34.8,0C53.9,0,69.5,15.6,69.5,34.8C69.5,54,53.9,69.6,34.8,69.6C15.5,69.6,0,54,0,34.8z" transform="translate(37.75,-0.02)" id="shape8"/><path stroke="#e1a297" fill="#e1a297" d="M0,34.8C0,15.6,15.5,0,34.8,0C53.9,0,69.5,15.6,69.5,34.8C69.5,54,53.9,69.6,34.8,69.6C15.5,69.6,0,54,0,34.8z" transform="translate(77.37,28.36)" id="shape9"/><path stroke="#e1a297" fill="#e1a297" d="M0,34.8C0,15.6,15.5,0,34.8,0C53.9,0,69.5,15.6,69.5,34.8C69.5,54,53.9,69.6,34.8,69.6C15.5,69.6,0,54,0,34.8z" transform="translate(59.34,73.58)" id="shape10"/><path stroke="#e1a297" fill="#e1a297" d="M0,34.8C0,15.6,15.5,0,34.8,0C53.9,0,69.5,15.6,69.5,34.8C69.5,54,53.9,69.6,34.8,69.6C15.5,69.6,0,54,0,34.8z" transform="translate(18.12,73.58)" id="shape11"/><path stroke="#e1a297" fill="#e1a297" d="M0,34.8C0,15.6,15.5,0,34.8,0C53.9,0,69.5,15.6,69.5,34.8C69.5,54,53.9,69.6,34.8,69.6C15.5,69.6,0,54,0,34.8z" transform="translate(-0,28.36)" id="shape12"/></g><path fill="#ffffff" d="M0,57.1C0,25.6,25.6,0,57.1,0C88.6,0,114.1,25.6,114.1,57.1C114.1,88.6,88.6,114.1,57.1,114.1C25.6,114.1,0,88.6,0,57.1z" transform="translate(541.88,404.4)" id="shape13"/><g transform="translate(555.88,420.1)" id="shape14"><text class="st7"><tspan y="39.8" x="18">Energy </tspan><tspan y="61.8" x="4.7">Decrement</tspan></text></g></g></svg>