<?xml version="1.0" standalone="no"?><!DOCTYPE svg PUBLIC "-//W3C//DTD SVG 1.1//EN" "http://www.w3.org/Graphics/SVG/1.1/DTD/svg11.dtd"><svg t="1676860092386" class="icon" viewBox="0 0 1170 1024" version="1.1" xmlns="http://www.w3.org/2000/svg" p-id="4533" xmlns:xlink="http://www.w3.org/1999/xlink" width="228.515625" height="200"><path d="M364.656649 734.8296c-10.451942 0-20.903884-3.483981-29.033173-11.613269L11.613269 398.044797c-16.258577-16.258577-16.258577-41.807769 0-58.066345L335.623476 15.968245c16.258577-16.258577 41.807769-16.258577 58.066345 0s16.258577 41.807769 0 58.066345L99.874114 369.011625 394.851148 663.988659c16.258577 16.258577 16.258577 41.807769 0 58.066345-8.129288 8.129288-19.742557 12.774596-30.194499 12.774596z" p-id="4534"></path><path d="M645.69776 727.861639c-15.09725 15.09725-38.323788 15.09725-53.421038 0L260.137227 395.722143c-15.09725-15.09725-15.09725-38.323788 0-53.421037L592.276722 11.322937c15.09725-15.09725 38.323788-15.09725 53.421038 0" p-id="4535"></path><path d="M644.536433 532.758718S1103.260561 496.757584 1023.129005 1024c0 0 216.006805-249.685285 113.810037-515.629147-51.098384-96.390133-112.64871-294.977034-492.402609-297.299688v321.687553z" p-id="4536"></path></svg>